<svg width="22" height="21" viewBox="0 0 22 21" fill="none" xmlns="http://www.w3.org/2000/svg">
<path d="M14.725 11.8861L13.625 10.7875C14.0583 9.6056 13.8333 8.62349 12.95 7.84114C12.0667 7.05878 11.1083 6.85903 10.075 7.24189L8.975 6.14326C9.25833 5.96015 9.575 5.82699 9.925 5.74376C10.275 5.66053 10.6333 5.61891 11 5.61891C12.1833 5.61891 13.1875 6.0309 14.0125 6.85487C14.8375 7.67884 15.25 8.68175 15.25 9.86361C15.25 10.2298 15.2042 10.5919 15.1125 10.9498C15.0208 11.3076 14.8917 11.6197 14.725 11.8861ZM17.95 15.1071L16.95 14.1083C17.7667 13.5091 18.4792 12.8391 19.0875 12.0983C19.6958 11.3576 20.1417 10.6127 20.425 9.86361C19.5917 8.01592 18.3417 6.55524 16.675 5.48159C15.0083 4.40793 13.2 3.8711 11.25 3.8711C10.55 3.8711 9.83333 3.93768 9.1 4.07085C8.36667 4.20402 7.79167 4.36215 7.375 4.54526L6.225 3.37172C6.80833 3.10539 7.55417 2.87235 8.4625 2.6726C9.37083 2.47285 10.2583 2.37297 11.125 2.37297C13.5083 2.37297 15.6875 3.05129 17.6625 4.40793C19.6375 5.76457 21.0833 7.58313 22 9.86361C21.5667 10.9289 21.0083 11.9027 20.325 12.785C19.6417 13.6672 18.85 14.4412 17.95 15.1071ZM19.4 20.75L15.2 16.6301C14.6167 16.8632 13.9583 17.0421 13.225 17.167C12.4917 17.2918 11.75 17.3542 11 17.3542C8.56667 17.3542 6.35833 16.6759 4.375 15.3193C2.39167 13.9627 0.933333 12.1441 0 9.86361C0.333333 8.99802 0.795833 8.15325 1.3875 7.32928C1.97917 6.50531 2.7 5.71879 3.55 4.96973L0.4 1.82366L1.45 0.75L20.375 19.6514L19.4 20.75ZM4.575 6.01841C3.95833 6.46785 3.3625 7.05878 2.7875 7.7912C2.2125 8.52362 1.8 9.21442 1.55 9.86361C2.4 11.7113 3.67917 13.172 5.3875 14.2456C7.09583 15.3193 9.03333 15.8561 11.2 15.8561C11.75 15.8561 12.2917 15.8228 12.825 15.7562C13.3583 15.6897 13.7583 15.5898 14.025 15.4566L12.425 13.8586C12.2417 13.9418 12.0167 14.0043 11.75 14.0459C11.4833 14.0875 11.2333 14.1083 11 14.1083C9.83333 14.1083 8.83333 13.7005 8 12.8848C7.16667 12.0692 6.75 11.0621 6.75 9.86361C6.75 9.61392 6.77083 9.36423 6.8125 9.11454C6.85417 8.86486 6.91667 8.64014 7 8.44039L4.575 6.01841Z" fill="black"/>
</svg>
